<svg width="13" height="22" viewBox="0 0 13 22" fill="none" xmlns="http://www.w3.org/2000/svg">
<g clip-path="url(#clip0)">
<path d="M4.46513 10.9958L12.368 18.5612C12.5856 18.769 12.7052 19.0468 12.7052 19.3431C12.7052 19.6395 12.5856 19.9172 12.368 20.1253L11.6755 20.7879C11.4582 20.9964 11.1678 21.1111 10.8583 21.1111C10.5488 21.1111 10.2587 20.9964 10.0413 20.7879L0.631712 11.7806C0.41342 11.5719 0.293884 11.2929 0.294742 10.9962C0.293884 10.6983 0.413248 10.4197 0.631711 10.2107L10.0325 1.21217C10.25 1.00365 10.54 0.888925 10.8497 0.888925C11.1591 0.888925 11.4493 1.00365 11.6669 1.21217L12.3592 1.87468C12.8097 2.30596 12.8097 3.00798 12.3592 3.43902L4.46513 10.9958Z" fill="#8BBBFD"/>
</g>
<defs>
<clipPath id="clip0">
<rect width="13" height="21" fill="white" transform="matrix(1 -8.74228e-08 -8.74228e-08 -1 0 21.5)"/>
</clipPath>
</defs>
</svg>
