<svg width="30" height="31" viewBox="0 0 30 31" fill="none" xmlns="http://www.w3.org/2000/svg">
<path fill-rule="evenodd" clip-rule="evenodd" d="M29.9984 11.0659C29.9984 2.66631 27.9987 0.66663 19.5991 0.66663V0.665039H10.3993C1.99968 0.665039 0 2.66472 0 11.0643V20.2657C0 28.6654 1.99968 30.665 10.3993 30.665H19.5991C27.9987 30.665 29.9984 28.6638 29.9984 20.2641V11.0659ZM9.8251 13.3655L9.75088 13.3754L7.40134 13.6885C7.39605 13.6893 7.39079 13.69 7.38555 13.6909C7.21607 13.7189 7.07644 13.8302 7.02297 13.9812C6.96781 14.1368 7.01381 14.3077 7.14156 14.4219L8.84484 15.9449L10.0012 16.9789L10.7306 17.631L10.691 17.8426L10.4423 19.1731L10.2786 20.0486L9.98211 21.6346L9.88343 22.1624C9.85327 22.3237 9.92559 22.4867 10.0699 22.5829C10.2142 22.6791 10.4056 22.6918 10.5636 22.6156L11.7145 22.0606L12.8281 21.5236L13.437 21.2299L14.123 20.8992L15 20.4762L16.5553 21.2263L19.4363 22.6156C19.5049 22.6487 19.5797 22.665 19.6544 22.665C19.7515 22.665 19.8483 22.6373 19.9299 22.5829C20.0743 22.4867 20.1466 22.3237 20.1164 22.1624L19.7526 20.2171L19.269 17.631L21.3018 15.8136L21.4215 15.7067L22.8584 14.422C22.9862 14.3077 23.0322 14.1368 22.977 13.9812C22.9219 13.8255 22.7752 13.7121 22.5987 13.6885L20.3646 13.3908L20.2579 13.3765L17.6386 13.0274L17.3846 12.5553L17.0155 11.8693L16.9055 11.6649L16.4562 10.8299L16.0332 10.0438L15.6558 9.34229L15.4204 8.9047C15.3414 8.75794 15.1785 8.66504 15 8.66504C14.8216 8.66504 14.6586 8.75797 14.5797 8.9047L14.0123 9.95909L13.749 10.4485L13.4847 10.9396L12.3613 13.0274L9.8251 13.3655Z" fill="#191919"/>
</svg>
