<svg width="33" height="33" viewBox="0 0 33 33" fill="none" xmlns="http://www.w3.org/2000/svg">
<path d="M20.6267 1.66663C29.0263 1.66663 31.026 3.66631 31.026 12.0659V21.2641C31.026 29.6638 29.0263 31.665 20.6267 31.665H11.4269C3.0273 31.665 1.02762 29.6654 1.02762 21.2657V12.0643C1.02762 3.66472 3.0273 1.66504 11.4269 1.66504H20.6267V1.66663ZM8.84022 11.0398H6.65282C6.02762 11.0398 5.90353 11.3341 5.90353 11.6603C5.90353 12.2377 6.64486 15.1124 9.35565 18.9129C11.1628 21.5075 13.7098 22.9154 16.0276 22.9154C17.418 22.9154 17.5898 22.602 17.5898 22.0643V20.1012C17.5898 19.476 17.7219 19.352 18.1625 19.352C18.4871 19.352 19.0423 19.5142 20.3404 20.7646C21.823 22.2473 22.068 22.9123 22.9016 22.9123H25.089C25.7142 22.9123 26.0276 22.6004 25.8463 21.9848C25.649 21.3691 24.9411 20.4783 24.0009 19.4204C23.4918 18.819 22.7282 18.17 22.496 17.8454C22.1714 17.4286 22.2637 17.2409 22.496 16.8718L22.5341 16.8162C22.8634 16.3485 25.1797 13.0268 25.439 11.8432C25.5774 11.3787 25.439 11.0382 24.7772 11.0382H22.5898C22.033 11.0382 21.7785 11.3326 21.6385 11.6587C21.6385 11.6587 20.5249 14.3695 18.95 16.1289C18.4409 16.6396 18.2087 16.8019 17.9303 16.8019C17.7919 16.8019 17.5898 16.6396 17.5898 16.1767V11.8448C17.5898 11.288 17.4291 11.0398 16.9646 11.0398H13.53C13.1816 11.0398 12.9732 11.2991 12.9732 11.5425C12.9732 12.0707 13.7607 12.1916 13.8418 13.6743V16.8957C13.8418 17.602 13.7145 17.7309 13.4361 17.7309C12.6948 17.7309 10.8908 15.0074 9.82017 11.8909C9.61177 11.2864 9.40019 11.0398 8.84181 11.0398H8.84022Z" fill="#191919"/>
</svg>
