<svg width="13" height="22" viewBox="0 0 13 22" fill="none" xmlns="http://www.w3.org/2000/svg">
<g clip-path="url(#clip0)">
<path d="M8.53487 10.9958L0.632023 18.5612C0.414436 18.769 0.294754 19.0468 0.294754 19.3431C0.294754 19.6395 0.414435 19.9172 0.632023 20.1253L1.32452 20.7879C1.54178 20.9964 1.83225 21.1111 2.14173 21.1111C2.45121 21.1111 2.74127 20.9964 2.9587 20.7879L12.3683 11.7806C12.5866 11.5719 12.7061 11.2929 12.7053 10.9962C12.7061 10.6983 12.5868 10.4197 12.3683 10.2107L2.96747 1.21217C2.75005 1.00365 2.45999 0.888925 2.15034 0.888925C1.84086 0.888925 1.55072 1.00365 1.33313 1.21217L0.640799 1.87468C0.190349 2.30596 0.190349 3.00798 0.640799 3.43902L8.53487 10.9958Z" fill="#8BBBFD"/>
</g>
<defs>
<clipPath id="clip0">
<rect width="13" height="21" fill="white" transform="translate(13 21.5) rotate(-180)"/>
</clipPath>
</defs>
</svg>
