<svg width="28" height="10" viewBox="0 0 28 10" fill="none" xmlns="http://www.w3.org/2000/svg">
<path d="M1.08432 5.73312H24.048L20.2439 8.29266C19.8195 8.57828 19.8178 9.04247 20.2403 9.32944C20.6628 9.61644 21.3493 9.61753 21.7738 9.33198L27.4396 5.51963C27.44 5.51941 27.4403 5.51916 27.4406 5.51894C27.864 5.2333 27.8653 4.76761 27.4407 4.48103C27.4403 4.48081 27.44 4.48056 27.4397 4.48034L21.7739 0.668016C21.3495 0.382459 20.6629 0.383449 20.2404 0.670509C19.8179 0.957494 19.8196 1.42168 20.244 1.70731L24.048 4.26685L1.08432 4.26684C0.485451 4.26684 3.75972e-08 4.59507 0 4.99998C-3.75972e-08 5.40489 0.485451 5.73312 1.08432 5.73312Z" fill="white"/>
</svg>
