<svg width="30" height="31" viewBox="0 0 30 31" fill="none" xmlns="http://www.w3.org/2000/svg">
<path fill-rule="evenodd" clip-rule="evenodd" d="M30 11.0659C30 2.66631 28.0002 0.66663 19.6001 0.66663V0.665039H10.3999C1.99979 0.665039 0 2.66472 0 11.0643V20.2657C0 28.6654 1.99979 30.665 10.3999 30.665H19.6001C28.0002 30.665 30 28.6638 30 20.2641V11.0659ZM11.1925 10.0883C10.9728 10.5848 10.859 11.126 10.8527 11.708C10.8525 11.7251 10.8524 11.7422 10.8524 11.7594C10.8524 11.8077 10.8531 11.8557 10.8546 11.9035C10.8773 12.6423 11.0756 13.3139 11.4464 13.9104C11.6097 14.1732 11.8066 14.4215 12.0366 14.6545C12.3972 15.0197 12.7947 15.3022 13.2266 15.5011C13.736 15.7358 14.2933 15.854 14.8941 15.854C15.8812 15.854 16.7505 15.5352 17.4834 14.9053C17.575 14.8265 17.6645 14.7429 17.7519 14.6544C18.4598 13.9372 18.8532 13.0756 18.9242 12.0891C18.932 11.9807 18.9359 11.8708 18.9359 11.7594C18.9359 11.637 18.9311 11.5164 18.9217 11.3977C18.8906 11.0049 18.808 10.632 18.6746 10.2802C18.4775 9.76077 18.1693 9.28747 17.7518 8.86437C17.6861 8.79784 17.6192 8.73406 17.551 8.67303C16.8042 8.0039 15.9117 7.66504 14.8941 7.66504C13.7835 7.66504 12.8222 8.06853 12.0365 8.8645C11.671 9.2348 11.3893 9.64365 11.1925 10.0883ZM15.6503 17.1143C15.4332 17.1569 15.2155 17.1784 14.9996 17.1784C14.64 17.1784 14.2758 17.1188 13.9165 17.0011C13.5491 16.8809 13.2513 16.748 13.0317 16.6061C12.9411 16.5474 12.8535 16.4905 12.7693 16.4357C12.6169 16.3364 12.4755 16.2438 12.3468 16.1589C12.0273 15.9478 11.8615 15.8766 11.6902 15.8766C11.58 15.8766 11.4717 15.8814 11.3653 15.8909C11.3173 15.8952 11.2696 15.9005 11.2224 15.9067C10.9603 15.9413 10.7114 16.0056 10.4784 16.0991C10.1763 16.2203 9.90736 16.3785 9.67652 16.5708C9.62546 16.6133 9.57627 16.6575 9.529 16.7033C9.27973 16.9451 9.05735 17.2386 8.86839 17.5757C8.74919 17.7883 8.64484 18.0069 8.55653 18.2288C8.53821 18.2749 8.52057 18.3211 8.50364 18.3674C8.47746 18.439 8.45295 18.5109 8.43016 18.5831C8.32531 18.9152 8.23761 19.2785 8.1695 19.6629C8.10204 20.044 8.0562 20.4055 8.03354 20.7375C8.02436 20.8715 8.01706 21.0077 8.01163 21.1452C8.0039 21.3416 8 21.5409 8 21.7414C8 22.6288 8.27845 23.3472 8.82755 23.877C9.36986 24.3998 10.0874 24.665 10.9601 24.665H19.0399C19.6079 24.665 20.11 24.5527 20.541 24.3302C20.7722 24.2107 20.9829 24.0596 21.1723 23.877C21.6858 23.382 21.9626 22.7217 21.9965 21.9123C21.9988 21.856 22 21.799 22 21.7412C21.9999 21.3987 21.9885 21.0608 21.9661 20.7371C21.9434 20.4059 21.8976 20.0445 21.8301 19.6629C21.762 19.2785 21.6743 18.9151 21.5693 18.5829C21.4609 18.2396 21.3134 17.9006 21.1311 17.5757C20.9419 17.2385 20.7196 16.9448 20.4702 16.7032C20.2094 16.4504 19.8902 16.2472 19.5209 16.0989C19.153 15.9515 18.7452 15.8768 18.3091 15.8768C18.1378 15.8768 17.9721 15.948 17.6522 16.159C17.4553 16.2891 17.2249 16.4395 16.9679 16.6059C16.748 16.7478 16.4503 16.8808 16.0824 17.0011C15.9391 17.0481 15.7948 17.0859 15.6503 17.1143Z" fill="#191919"/>
</svg>
