<?xml version="1.0"?>
<svg xmlns="http://www.w3.org/2000/svg" xmlns:xlink="http://www.w3.org/1999/xlink" width="1455" height="699" viewBox="0 0 1455 699">
    <defs>
        <path id="a" d="M0 0h1507v709H0z"/>
    </defs>
    <g fill="none" fill-rule="evenodd" transform="translate(-38 -1)">
        <mask id="b" fill="#fff">
            <use xlink:href="#a"/>
        </mask>
        <use fill="#E8E8E8" xlink:href="#a"/>
        <g fill="#FFF" mask="url(#b)" opacity=".301">
            <path d="M39.437 87H170.45v568H39.437zM172 87V0h80v87zM171 743v-87h87v87zM1111-76h128.087v620H1111z"/>
            <path stroke="#FFF" stroke-width="51" d="M511.926 1055.018c1.6 24.335 7.124 46.668 16.57 67.001 9.446 20.333 21.933 37.943 37.463 52.832 15.53 14.89 33.94 26.497 55.234 34.822 21.293 8.325 44.747 12.487 70.363 12.487 22.734 0 44.507-2.481 65.32-7.444 20.813-4.963 39.144-12.888 54.993-23.775 15.85-10.887 28.498-24.975 37.944-42.266 9.445-17.29 14.168-38.423 14.168-63.398 0-20.173-5.123-37.303-15.37-51.392-10.245-14.089-23.694-26.336-40.344-36.742-16.65-10.407-35.621-19.292-56.915-26.657a2031.673 2031.673 0 0 0-64.6-21.133c-27.216-8.005-54.512-16.97-81.89-26.896-27.376-9.926-52.031-22.574-73.965-37.943-21.933-15.37-39.784-34.501-53.552-57.395-13.769-22.895-20.653-51.312-20.653-85.253C456.692 713.69 506 568.5 682 568.5s224.167 140.466 227.85 156.316c3.682 15.85 6.003 31.139 6.964 45.868h-74.446C848.612 579.287 542.5 592.316 542.5 757s221.74 142.083 248.957 152.009c27.217 9.926 51.551 22.413 73.005 37.463 21.453 15.049 38.823 33.7 52.111 55.954 13.289 22.254 19.933 49.87 19.933 82.85 0 33.301-6.084 62.519-18.251 87.654-12.168 25.136-29.138 46.188-50.912 63.159-21.773 16.97-47.629 29.698-77.567 38.183-29.939 8.485-62.678 12.728-98.22 12.728-32.02 0-63.079-5.363-93.177-16.09-30.099-10.726-56.915-26.176-80.45-46.348-23.534-20.173-42.666-44.587-57.395-73.245-14.729-28.658-22.573-60.757-23.534-96.299h74.926zM1264.5-41.207c161.638-13.765 242.457 51.724 242.457 196.468 0 26.951-2.71 50.827-8.13 71.626-5.419 20.8-12.743 39.036-21.97 54.709-9.228 15.672-19.92 28.855-32.078 39.548-12.158 10.692-25.12 19.48-38.89 26.365-13.768 6.884-27.903 12.01-42.404 15.38-14.5 3.369-28.489 5.493-41.965 6.371v-68.11c81.45-6.883 129.98-52.15 123.259-145.889-6.722-93.738-94.279-127.968-180.279-119.468v-77zM480.327 137.627c9.025 87.661 76.98 207.157 208.433 207.157 131.452 0 193.043-72.876 192.77-162.44-.274-89.563-49.228-161.816-202.106-189.937C526.546-35.714 456.625-95.838 440.945-121.91c-15.68-26.072-23.52-58.434-23.52-97.087 0-32.09 6.29-60.44 18.871-85.054 12.58-24.614 30.266-45.307 53.056-62.08 22.79-16.775 49.957-29.446 81.499-38.015C602.393-412.716 637.125-417 675.048-417c33.548 0 63.266 3.373 89.156 10.119 25.89 6.746 48.59 15.862 68.098 27.348 19.509 11.487 35.918 24.796 49.227 39.93 13.31 15.132 24.25 31.268 32.819 48.406 8.569 17.138 14.95 34.732 19.144 52.783 4.193 18.05 6.837 35.461 7.93 52.235h-84.78c-15.111-178.819-340.28-179.376-340.28 8.17S882.469-44.271 909.5 1C936.532 46.27 958 111.41 958 166.5S906.155 412 688.76 412 397.846 242.942 395 137.627h85.327z"/>
        </g>
    </g>
</svg>
