<svg width="40" height="40" viewBox="0 0 40 40" fill="none" xmlns="http://www.w3.org/2000/svg">
<path d="M20.0002 39.1667C9.41471 39.1667 0.833496 30.5855 0.833496 20C0.833496 9.41458 9.41471 0.833374 20.0002 0.833374C30.5856 0.833374 39.1668 9.41458 39.1668 20C39.1552 30.5807 30.5808 39.1551 20.0002 39.1667ZM4.66683 20.3297C4.75752 28.7654 11.6456 35.5433 20.0817 35.4982C28.5178 35.4526 35.3326 28.6011 35.3326 20.1649C35.3326 11.7287 28.5178 4.87711 20.0817 4.83154C11.6456 4.78642 4.75752 11.5643 4.66683 20V20.3297ZM21.9168 29.5834H18.0835V21.9167H10.4168V18.0834H18.0835V10.4167H21.9168V18.0834H29.5835V21.9167H21.9168V29.5834Z" fill="#2E3A59"/>
</svg>
