<svg width="149" height="40" viewBox="0 0 149 40" fill="none" xmlns="http://www.w3.org/2000/svg">
<circle cx="20" cy="20" r="20" fill="#2D9D78"/>
<path d="M26.2612 12C27.4645 12 28.44 12.9755 28.44 14.1788V27.156C28.44 28.064 27.704 28.8 26.796 28.8C25.888 28.8 25.152 28.064 25.152 27.156V25.7849C25.152 23.5567 22.2218 22.738 21.0669 24.6434L20.5236 25.5397C20.4618 25.6417 20.3511 25.704 20.2318 25.704C20.1127 25.704 20.0022 25.6419 19.9403 25.5401L19.3965 24.6457C18.2395 22.7428 15.312 23.5629 15.312 25.79V27.144C15.312 28.0586 14.5706 28.8 13.656 28.8C12.7414 28.8 12 28.0586 12 27.144V14.1809C12 12.9764 12.9764 12 14.1809 12C14.9428 12 15.6495 12.3976 16.0449 13.0489L17.6614 15.7108C18.8311 17.6371 21.6278 17.634 22.7933 15.7051L24.3963 13.052C24.7909 12.399 25.4982 12 26.2612 12Z" fill="#F6F6F6"/>
<path d="M96.3264 7.3418H98.8824V19.9418H96.4164V11.7698L92.8704 17.6198H92.5824L89.0364 11.7878V19.9418H86.5524V7.3418H89.1084L92.7264 13.2998L96.3264 7.3418Z" fill="#7DC0AA"/>
<path d="M107.962 12.0038V10.9418H110.284V19.9418H107.962V18.8798C107.266 19.7558 106.288 20.1938 105.028 20.1938C103.828 20.1938 102.796 19.7378 101.932 18.8258C101.08 17.9018 100.654 16.7738 100.654 15.4418C100.654 14.1218 101.08 12.9998 101.932 12.0758C102.796 11.1518 103.828 10.6898 105.028 10.6898C106.288 10.6898 107.266 11.1278 107.962 12.0038ZM103.678 17.2778C104.146 17.7458 104.74 17.9798 105.46 17.9798C106.18 17.9798 106.774 17.7458 107.242 17.2778C107.722 16.7978 107.962 16.1858 107.962 15.4418C107.962 14.6978 107.722 14.0918 107.242 13.6238C106.774 13.1438 106.18 12.9038 105.46 12.9038C104.74 12.9038 104.146 13.1438 103.678 13.6238C103.21 14.0918 102.976 14.6978 102.976 15.4418C102.976 16.1858 103.21 16.7978 103.678 17.2778Z" fill="#7DC0AA"/>
<path d="M116.962 15.3878L120.688 19.9418H117.988L114.712 15.8558V19.9418H112.39V7.3418H114.712V14.9018L117.808 10.9418H120.58L116.962 15.3878Z" fill="#7DC0AA"/>
<path d="M129.944 16.3958H123.158C123.458 17.5238 124.304 18.0878 125.696 18.0878C126.584 18.0878 127.256 17.7878 127.712 17.1878L129.584 18.2678C128.696 19.5518 127.388 20.1938 125.66 20.1938C124.172 20.1938 122.978 19.7438 122.078 18.8438C121.178 17.9438 120.728 16.8098 120.728 15.4418C120.728 14.0978 121.172 12.9698 122.06 12.0578C122.936 11.1458 124.076 10.6898 125.48 10.6898C126.812 10.6898 127.898 11.1458 128.738 12.0578C129.602 12.9698 130.034 14.0978 130.034 15.4418C130.034 15.6938 130.004 16.0118 129.944 16.3958ZM123.122 14.5958H127.712C127.58 14.0078 127.31 13.5578 126.902 13.2458C126.506 12.9338 126.032 12.7778 125.48 12.7778C124.856 12.7778 124.34 12.9398 123.932 13.2638C123.524 13.5758 123.254 14.0198 123.122 14.5958Z" fill="#7DC0AA"/>
<path d="M133.977 10.9418V12.4898C134.181 11.9258 134.529 11.4998 135.021 11.2118C135.513 10.9118 136.077 10.7618 136.713 10.7618V13.3538C136.005 13.2578 135.369 13.4018 134.805 13.7858C134.253 14.1578 133.977 14.7758 133.977 15.6398V19.9418H131.655V10.9418H133.977Z" fill="#7DC0AA"/>
<path d="M58.95 20.194C57.714 20.194 56.67 19.918 55.818 19.366C54.966 18.814 54.36 18.052 54 17.08L56.124 15.838C56.616 17.122 57.582 17.764 59.022 17.764C59.694 17.764 60.198 17.644 60.534 17.404C60.87 17.164 61.038 16.84 61.038 16.432C61.038 15.988 60.84 15.646 60.444 15.406C60.048 15.154 59.34 14.884 58.32 14.596C57.216 14.26 56.346 13.87 55.71 13.426C54.918 12.838 54.522 11.974 54.522 10.834C54.522 9.682 54.924 8.776 55.728 8.116C56.532 7.432 57.51 7.09 58.662 7.09C59.67 7.09 60.564 7.336 61.344 7.828C62.124 8.32 62.73 9.016 63.162 9.916L61.074 11.122C60.57 10.042 59.766 9.502 58.662 9.502C58.158 9.502 57.756 9.622 57.456 9.862C57.156 10.09 57.006 10.39 57.006 10.762C57.006 11.158 57.168 11.482 57.492 11.734C57.852 11.986 58.488 12.25 59.4 12.526L60.264 12.814C60.42 12.862 60.69 12.964 61.074 13.12C61.434 13.252 61.698 13.378 61.866 13.498C62.454 13.858 62.85 14.23 63.054 14.614C63.366 15.118 63.522 15.712 63.522 16.396C63.522 17.56 63.096 18.484 62.244 19.168C61.392 19.852 60.294 20.194 58.95 20.194Z" fill="#2D9D78"/>
<path d="M66.1861 9.862C65.8021 9.862 65.4661 9.724 65.1781 9.448C64.9021 9.16 64.7641 8.824 64.7641 8.44C64.7641 8.056 64.9021 7.72 65.1781 7.432C65.4661 7.144 65.8021 7 66.1861 7C66.5821 7 66.9181 7.144 67.1941 7.432C67.4821 7.72 67.6261 8.056 67.6261 8.44C67.6261 8.824 67.4821 9.16 67.1941 9.448C66.9181 9.724 66.5821 9.862 66.1861 9.862ZM67.3561 19.942H65.0341V10.942H67.3561V19.942Z" fill="#2D9D78"/>
<path d="M74.6294 10.942V13.174H72.5954V16.918C72.5954 17.23 72.6734 17.458 72.8294 17.602C72.9854 17.746 73.2134 17.83 73.5134 17.854C73.8134 17.866 74.1854 17.86 74.6294 17.836V19.942C73.0574 20.122 71.9354 19.978 71.2634 19.51C70.6034 19.03 70.2734 18.166 70.2734 16.918V13.174H68.7074V10.942H70.2734V9.124L72.5954 8.422V10.942H74.6294Z" fill="#2D9D78"/>
<path d="M84.7333 16.396H77.9473C78.2473 17.524 79.0933 18.088 80.4853 18.088C81.3733 18.088 82.0453 17.788 82.5013 17.188L84.3733 18.268C83.4853 19.552 82.1773 20.194 80.4493 20.194C78.9613 20.194 77.7673 19.744 76.8673 18.844C75.9673 17.944 75.5173 16.81 75.5173 15.442C75.5173 14.098 75.9613 12.97 76.8493 12.058C77.7253 11.146 78.8653 10.69 80.2693 10.69C81.6013 10.69 82.6873 11.146 83.5273 12.058C84.3913 12.97 84.8233 14.098 84.8233 15.442C84.8233 15.694 84.7933 16.012 84.7333 16.396ZM77.9113 14.596H82.5013C82.3693 14.008 82.0993 13.558 81.6913 13.246C81.2953 12.934 80.8213 12.778 80.2693 12.778C79.6453 12.778 79.1293 12.94 78.7213 13.264C78.3133 13.576 78.0433 14.02 77.9113 14.596Z" fill="#2D9D78"/>
<path d="M59.5006 31.9419H58.3606L55.3406 28.5819V31.9419H54.4106V24.9419H55.3406V28.1019L58.2606 24.9419H59.4006L56.3106 28.3419L59.5006 31.9419Z" fill="#7DC0AA"/>
<path d="M64.0094 31.3119C63.4961 31.8186 62.8727 32.0719 62.1394 32.0719C61.4061 32.0719 60.7827 31.8186 60.2694 31.3119C59.7627 30.8052 59.5094 30.1819 59.5094 29.4419C59.5094 28.7019 59.7627 28.0786 60.2694 27.5719C60.7827 27.0652 61.4061 26.8119 62.1394 26.8119C62.8727 26.8119 63.4961 27.0652 64.0094 27.5719C64.5227 28.0786 64.7794 28.7019 64.7794 29.4419C64.7794 30.1819 64.5227 30.8052 64.0094 31.3119ZM62.1394 31.2219C62.6394 31.2219 63.0594 31.0519 63.3994 30.7119C63.7394 30.3719 63.9094 29.9486 63.9094 29.4419C63.9094 28.9352 63.7394 28.5119 63.3994 28.1719C63.0594 27.8319 62.6394 27.6619 62.1394 27.6619C61.6461 27.6619 61.2294 27.8319 60.8894 28.1719C60.5494 28.5119 60.3794 28.9352 60.3794 29.4419C60.3794 29.9486 60.5494 30.3719 60.8894 30.7119C61.2294 31.0519 61.6461 31.2219 62.1394 31.2219Z" fill="#7DC0AA"/>
<path d="M69.265 26.9419H70.135V31.9419H69.265V29.8519H66.675V31.9419H65.805V26.9419H66.675V29.0219H69.265V26.9419Z" fill="#7DC0AA"/>
<path d="M73.8093 32.0719C73.056 32.0719 72.4293 31.8219 71.9293 31.3219C71.4293 30.8152 71.1793 30.1886 71.1793 29.4419C71.1793 28.6952 71.4293 28.0719 71.9293 27.5719C72.4293 27.0652 73.056 26.8119 73.8093 26.8119C74.3027 26.8119 74.746 26.9319 75.1393 27.1719C75.5326 27.4052 75.826 27.7219 76.0193 28.1219L75.2893 28.5419C75.1626 28.2752 74.966 28.0619 74.6993 27.9019C74.4393 27.7419 74.1427 27.6619 73.8093 27.6619C73.3093 27.6619 72.8893 27.8319 72.5493 28.1719C72.216 28.5119 72.0493 28.9352 72.0493 29.4419C72.0493 29.9419 72.216 30.3619 72.5493 30.7019C72.8893 31.0419 73.3093 31.2119 73.8093 31.2119C74.1427 31.2119 74.4426 31.1352 74.7093 30.9819C74.976 30.8219 75.1793 30.6086 75.3193 30.3419L76.0593 30.7719C75.846 31.1652 75.5393 31.4819 75.1393 31.7219C74.7393 31.9552 74.296 32.0719 73.8093 32.0719Z" fill="#7DC0AA"/>
<path d="M80.5602 26.9419V27.7819H78.8602V31.9419H77.9902V27.7819H76.2802V26.9419H80.5602Z" fill="#7DC0AA"/>
<path d="M84.0826 26.8119C84.7826 26.8119 85.3793 27.0686 85.8726 27.5819C86.3659 28.0886 86.6126 28.7086 86.6126 29.4419C86.6126 30.1752 86.3659 30.7986 85.8726 31.3119C85.3793 31.8186 84.7826 32.0719 84.0826 32.0719C83.2559 32.0719 82.6259 31.7419 82.1926 31.0819V33.9419H81.3226V26.9419H82.1926V27.8019C82.6259 27.1419 83.2559 26.8119 84.0826 26.8119ZM83.9726 31.2319C84.4726 31.2319 84.8926 31.0619 85.2326 30.7219C85.5726 30.3752 85.7426 29.9486 85.7426 29.4419C85.7426 28.9352 85.5726 28.5119 85.2326 28.1719C84.8926 27.8252 84.4726 27.6519 83.9726 27.6519C83.4659 27.6519 83.0426 27.8252 82.7026 28.1719C82.3626 28.5119 82.1926 28.9352 82.1926 29.4419C82.1926 29.9486 82.3626 30.3752 82.7026 30.7219C83.0426 31.0619 83.4659 31.2319 83.9726 31.2319Z" fill="#7DC0AA"/>
<path d="M90.9454 26.9419H91.8754L89.8354 32.2519C89.6221 32.8186 89.3221 33.2486 88.9354 33.5419C88.5487 33.8419 88.1087 33.9752 87.6154 33.9419V33.1319C88.2287 33.1786 88.6787 32.8452 88.9654 32.1319L89.0454 31.9519L86.8754 26.9419H87.7954L89.5054 30.8619L90.9454 26.9419Z" fill="#7DC0AA"/>
<path d="M96.8319 31.9419H95.7519L93.4719 29.5719V31.9419H92.6019V26.9419H93.4719V29.1519L95.6319 26.9419H96.7519L94.3619 29.3619L96.8319 31.9419Z" fill="#7DC0AA"/>
<path d="M101.361 26.9419V27.7819H99.661V31.9419H98.791V27.7819H97.081V26.9419H101.361Z" fill="#7DC0AA"/>
<path d="M106.148 31.3119C105.635 31.8186 105.011 32.0719 104.278 32.0719C103.545 32.0719 102.921 31.8186 102.408 31.3119C101.901 30.8052 101.648 30.1819 101.648 29.4419C101.648 28.7019 101.901 28.0786 102.408 27.5719C102.921 27.0652 103.545 26.8119 104.278 26.8119C105.011 26.8119 105.635 27.0652 106.148 27.5719C106.661 28.0786 106.918 28.7019 106.918 29.4419C106.918 30.1819 106.661 30.8052 106.148 31.3119ZM104.278 31.2219C104.778 31.2219 105.198 31.0519 105.538 30.7119C105.878 30.3719 106.048 29.9486 106.048 29.4419C106.048 28.9352 105.878 28.5119 105.538 28.1719C105.198 27.8319 104.778 27.6619 104.278 27.6619C103.785 27.6619 103.368 27.8319 103.028 28.1719C102.688 28.5119 102.518 28.9352 102.518 29.4419C102.518 29.9486 102.688 30.3719 103.028 30.7119C103.368 31.0519 103.785 31.2219 104.278 31.2219Z" fill="#7DC0AA"/>
<path d="M110.704 26.8119C111.404 26.8119 112 27.0686 112.494 27.5819C112.987 28.0886 113.234 28.7086 113.234 29.4419C113.234 30.1752 112.987 30.7986 112.494 31.3119C112 31.8186 111.404 32.0719 110.704 32.0719C109.877 32.0719 109.247 31.7419 108.814 31.0819V33.9419H107.944V26.9419H108.814V27.8019C109.247 27.1419 109.877 26.8119 110.704 26.8119ZM110.594 31.2319C111.094 31.2319 111.514 31.0619 111.854 30.7219C112.194 30.3752 112.364 29.9486 112.364 29.4419C112.364 28.9352 112.194 28.5119 111.854 28.1719C111.514 27.8252 111.094 27.6519 110.594 27.6519C110.087 27.6519 109.664 27.8252 109.324 28.1719C108.984 28.5119 108.814 28.9352 108.814 29.4419C108.814 29.9486 108.984 30.3752 109.324 30.7219C109.664 31.0619 110.087 31.2319 110.594 31.2319Z" fill="#7DC0AA"/>
<path d="M119.122 32.0719C118.368 32.0719 117.742 31.8219 117.242 31.3219C116.742 30.8152 116.492 30.1886 116.492 29.4419C116.492 28.6952 116.742 28.0719 117.242 27.5719C117.742 27.0652 118.368 26.8119 119.122 26.8119C119.615 26.8119 120.058 26.9319 120.452 27.1719C120.845 27.4052 121.138 27.7219 121.332 28.1219L120.602 28.5419C120.475 28.2752 120.278 28.0619 120.012 27.9019C119.752 27.7419 119.455 27.6619 119.122 27.6619C118.622 27.6619 118.202 27.8319 117.862 28.1719C117.528 28.5119 117.362 28.9352 117.362 29.4419C117.362 29.9419 117.528 30.3619 117.862 30.7019C118.202 31.0419 118.622 31.2119 119.122 31.2119C119.455 31.2119 119.755 31.1352 120.022 30.9819C120.288 30.8219 120.492 30.6086 120.632 30.3419L121.372 30.7719C121.158 31.1652 120.852 31.4819 120.452 31.7219C120.052 31.9552 119.608 32.0719 119.122 32.0719Z" fill="#7DC0AA"/>
<path d="M126.302 26.9419H127.172V31.9419H126.302V31.0819C125.869 31.7419 125.239 32.0719 124.412 32.0719C123.712 32.0719 123.116 31.8186 122.622 31.3119C122.129 30.7986 121.882 30.1752 121.882 29.4419C121.882 28.7086 122.129 28.0886 122.622 27.5819C123.116 27.0686 123.712 26.8119 124.412 26.8119C125.239 26.8119 125.869 27.1419 126.302 27.8019V26.9419ZM124.522 31.2319C125.029 31.2319 125.452 31.0619 125.792 30.7219C126.132 30.3752 126.302 29.9486 126.302 29.4419C126.302 28.9352 126.132 28.5119 125.792 28.1719C125.452 27.8252 125.029 27.6519 124.522 27.6519C124.022 27.6519 123.602 27.8252 123.262 28.1719C122.922 28.5119 122.752 28.9352 122.752 29.4419C122.752 29.9486 122.922 30.3752 123.262 30.7219C123.602 31.0619 124.022 31.2319 124.522 31.2319Z" fill="#7DC0AA"/>
<path d="M129.311 26.1919V25.4319H132.011V26.1919H129.311ZM132.121 26.9419H132.821V31.9419H131.961V28.4319L129.191 31.9419H128.491V26.9419H129.351V30.4519L132.121 26.9419Z" fill="#7DC0AA"/>
<path d="M137.865 26.9419V27.7819H136.165V31.9419H135.295V27.7819H133.585V26.9419H137.865Z" fill="#7DC0AA"/>
<path d="M142.652 31.3119C142.139 31.8186 141.515 32.0719 140.782 32.0719C140.049 32.0719 139.425 31.8186 138.912 31.3119C138.405 30.8052 138.152 30.1819 138.152 29.4419C138.152 28.7019 138.405 28.0786 138.912 27.5719C139.425 27.0652 140.049 26.8119 140.782 26.8119C141.515 26.8119 142.139 27.0652 142.652 27.5719C143.165 28.0786 143.422 28.7019 143.422 29.4419C143.422 30.1819 143.165 30.8052 142.652 31.3119ZM140.782 31.2219C141.282 31.2219 141.702 31.0519 142.042 30.7119C142.382 30.3719 142.552 29.9486 142.552 29.4419C142.552 28.9352 142.382 28.5119 142.042 28.1719C141.702 27.8319 141.282 27.6619 140.782 27.6619C140.289 27.6619 139.872 27.8319 139.532 28.1719C139.192 28.5119 139.022 28.9352 139.022 29.4419C139.022 29.9486 139.192 30.3719 139.532 30.7119C139.872 31.0519 140.289 31.2219 140.782 31.2219Z" fill="#7DC0AA"/>
<path d="M147.778 29.3719C148.291 29.5852 148.548 29.9719 148.548 30.5319C148.548 30.9452 148.408 31.2852 148.128 31.5519C147.854 31.8119 147.461 31.9419 146.948 31.9419H144.448V26.9419H146.748C147.248 26.9419 147.634 27.0686 147.908 27.3219C148.181 27.5686 148.318 27.8952 148.318 28.3019C148.318 28.7819 148.138 29.1386 147.778 29.3719ZM146.708 27.7219H145.298V29.0319H146.708C147.214 29.0319 147.468 28.8086 147.468 28.3619C147.468 27.9352 147.214 27.7219 146.708 27.7219ZM146.898 31.1519C147.151 31.1519 147.344 31.0919 147.478 30.9719C147.618 30.8519 147.688 30.6819 147.688 30.4619C147.688 30.2552 147.618 30.0952 147.478 29.9819C147.344 29.8619 147.151 29.8019 146.898 29.8019H145.298V31.1519H146.898Z" fill="#7DC0AA"/>
</svg>
