<svg width="0" height="0" class="hidden">
  <symbol  xmlns="http://www.w3.org/2000/svg" viewBox="0 0 13 9" id="choise-icon">
    <path d="M9 9H1a1 1 0 01-1-1V1a1 1 0 011-1h8a1 1 0 011 1v7a1 1 0 01-1 1zM1 2v6h8V2H1z"></path>
    <path d="M5.556 7.5a.411.411 0 01-.303-.134.407.407 0 01-.109-.315l.101-1.109 4.658-4.657L11.36 2.74 6.702 7.397l-1.109.101a.39.39 0 01-.037.002zm6.093-5.05L10.194.993l.873-.873a.412.412 0 01.582 0l.873.873a.412.412 0 010 .582l-.872.873z" ></path>
  </symbol>
  <symbol  xmlns="http://www.w3.org/2000/svg" viewBox="0 0 12 12" id="loop-icon">
    <path d="M10.977 12l-4.13-4.13A4.336 4.336 0 117.87 6.847l4.13 4.13L10.978 12zM4.335 1.446a2.89 2.89 0 102.108.913l.437.433-.492-.49-.01-.01a2.87 2.87 0 00-2.043-.846z" ></path>
  </symbol>
  <symbol  xmlns="http://www.w3.org/2000/svg" viewBox="0 0 40 40" id="plus">
    <path d="M20 39.167C9.415 39.167.833 30.585.833 20S9.415.833 20 .833C30.586.833 39.167 9.415 39.167 20 39.155 30.58 30.58 39.155 20 39.167zM4.667 20.33c.09 8.435 6.979 15.213 15.415 15.168 8.436-.045 15.25-6.897 15.25-15.333S28.519 4.877 20.083 4.832C11.646 4.786 4.758 11.564 4.667 20v.33zm17.25 9.253h-3.834v-7.666h-7.666v-3.834h7.667v-7.666h3.833v7.666h7.666v3.834h-7.666v7.666z" fill="#2E3A59"></path>
  </symbol>
</svg>