<svg width="200" height="50" viewBox="0 0 200 50" fill="none" xmlns="http://www.w3.org/2000/svg">
<rect width="200" height="50" rx="4" fill="#2D9D78"/>
<path d="M37.0016 18.0002C36.8667 18.0018 36.7335 18.0302 36.6096 18.0836C36.4856 18.1371 36.3735 18.2146 36.2796 18.3117C36.1857 18.4088 36.1119 18.5236 36.0624 18.6494C36.013 18.7752 35.9889 18.9096 35.9915 19.0448V23.9752H31.0735C31.0376 23.9733 31.0017 23.9733 30.9658 23.9752C30.6951 23.9915 30.4419 24.1143 30.2612 24.317C30.0806 24.5197 29.9872 24.7857 30.0014 25.0572C30.0156 25.3286 30.1363 25.5836 30.3371 25.7662C30.5379 25.9488 30.8026 26.0443 31.0735 26.0321H35.9915V30.9625C35.9904 31.0983 36.016 31.233 36.0671 31.3588C36.1181 31.4846 36.1935 31.5991 36.2888 31.6956C36.3842 31.7921 36.4977 31.8686 36.6228 31.9208C36.7478 31.9731 36.882 32 37.0175 32C37.1529 32 37.2871 31.9731 37.4121 31.9208C37.5372 31.8686 37.6507 31.7921 37.7461 31.6956C37.8414 31.5991 37.9168 31.4846 37.9678 31.3588C38.0189 31.233 38.0445 31.0983 38.0434 30.9625V26.0321H42.9614C43.0972 26.0337 43.232 26.0085 43.3579 25.9576C43.4838 25.9067 43.5984 25.8311 43.695 25.7355C43.7916 25.6398 43.8683 25.5257 43.9207 25.4001C43.973 25.2745 44 25.1399 44 25.0038C44 24.8676 43.973 24.7328 43.9207 24.6072C43.8683 24.4816 43.7916 24.3675 43.695 24.2718C43.5984 24.1762 43.4838 24.1008 43.3579 24.0499C43.232 23.999 43.0972 23.9736 42.9614 23.9752H38.0434V19.0448C38.0461 18.9069 38.021 18.7698 37.9695 18.6418C37.9181 18.5139 37.8415 18.3976 37.7442 18.3001C37.6469 18.2026 37.531 18.1257 37.4034 18.0742C37.2757 18.0226 37.1392 17.9975 37.0016 18.0002Z" fill="white"/>
<path d="M64.0453 23.326C63.6426 20.4176 61.4054 18.7301 58.5034 18.7301C55.0836 18.7301 52.5076 21.223 52.5076 25.4545C52.5076 29.6797 55.0517 32.179 58.5034 32.179C61.6163 32.179 63.6809 30.1655 64.0453 27.6662L61.6547 27.6534C61.3542 29.1875 60.1014 30.0504 58.5353 30.0504C56.4132 30.0504 54.8919 28.4588 54.8919 25.4545C54.8919 22.5014 56.4004 20.8587 58.5417 20.8587C60.1333 20.8587 61.3798 21.7599 61.6547 23.326H64.0453ZM70.3974 32.1918C73.2738 32.1918 75.1019 30.1655 75.1019 27.1293C75.1019 24.0866 73.2738 22.054 70.3974 22.054C67.521 22.054 65.6928 24.0866 65.6928 27.1293C65.6928 30.1655 67.521 32.1918 70.3974 32.1918ZM70.4102 30.3381C68.8185 30.3381 68.0387 28.919 68.0387 27.1229C68.0387 25.3267 68.8185 23.8885 70.4102 23.8885C71.9762 23.8885 72.756 25.3267 72.756 27.1229C72.756 28.919 71.9762 30.3381 70.4102 30.3381ZM76.5225 29.3089C76.5801 31.1307 78.2484 32.1918 80.5176 32.1918C82.8443 32.1918 84.5254 31.0859 84.5254 29.277C84.5254 27.9538 83.6241 27.0462 82.4608 26.9759V26.8736C83.5858 26.5732 84.3017 25.87 84.3017 24.8089C84.3017 23.1534 82.8699 22.054 80.5687 22.054C78.421 22.054 76.8038 23.1662 76.7718 24.8793H79.0538C79.0794 24.2209 79.7569 23.7607 80.6774 23.7607C81.5978 23.7607 82.1539 24.2528 82.1539 24.9815C82.1539 25.6527 81.6426 26.1513 80.6838 26.1513H79.1816V27.794H80.6838C81.649 27.794 82.2818 28.3374 82.2818 29.13C82.2818 30.0249 81.4956 30.4595 80.5048 30.4595C79.5268 30.4595 78.862 30.0376 78.8173 29.3089H76.5225ZM85.4778 34.8509H87.7534V32H94.1774V34.8509H96.4146V30.0952H94.8933V22.1818H87.7981L87.5169 25.6207C87.3315 27.8196 87.0886 29.4496 86.2576 30.0952H85.4778V34.8509ZM88.6355 30.0952C89.2555 29.1811 89.4856 27.6982 89.6518 25.6207L89.8052 24.0483H92.6816V30.0952H88.6355ZM100.967 32.1982C102.508 32.1982 103.428 31.4759 103.85 30.6513H103.927V32H106.151V25.429C106.151 22.8338 104.036 22.054 102.163 22.054C100.098 22.054 98.5128 22.9744 98.0014 24.7642L100.162 25.071C100.392 24.3999 101.044 23.8246 102.175 23.8246C103.249 23.8246 103.837 24.3743 103.837 25.3395V25.3778C103.837 26.0426 103.141 26.0746 101.408 26.2599C99.5036 26.4645 97.6818 27.0334 97.6818 29.245C97.6818 31.1754 99.0945 32.1982 100.967 32.1982ZM101.568 30.4979C100.603 30.4979 99.9126 30.0568 99.9126 29.2067C99.9126 28.3182 100.686 27.9474 101.722 27.8004C102.329 27.7173 103.543 27.5639 103.844 27.321V28.478C103.844 29.571 102.962 30.4979 101.568 30.4979ZM107.379 24.0803H110.555V32H112.793V24.0803H115.969V22.1818H107.379V24.0803ZM120.043 25.3778V22.1818H117.812V32H122.274C124.773 32 126.211 30.6193 126.218 28.6889C126.211 26.7074 124.773 25.3778 122.274 25.3778H120.043ZM120.043 27.2763H122.274C123.277 27.2763 123.999 27.8707 123.999 28.7209C123.999 29.5327 123.277 30.1016 122.274 30.1016H120.043V27.2763ZM136.948 32.1918C139.415 32.1918 140.988 30.728 141.154 28.6442H138.942C138.744 29.6989 137.984 30.3061 136.967 30.3061C135.523 30.3061 134.589 29.098 134.589 27.0909C134.589 25.1094 135.542 23.9205 136.967 23.9205C138.08 23.9205 138.763 24.6364 138.942 25.5824H141.154C140.994 23.4538 139.332 22.054 136.935 22.054C134.059 22.054 132.244 24.1314 132.244 27.1293C132.244 30.1016 134.014 32.1918 136.948 32.1918ZM145.879 32.1982C147.42 32.1982 148.34 31.4759 148.762 30.6513H148.839V32H151.063V25.429C151.063 22.8338 148.948 22.054 147.075 22.054C145.01 22.054 143.425 22.9744 142.914 24.7642L145.074 25.071C145.304 24.3999 145.956 23.8246 147.088 23.8246C148.161 23.8246 148.749 24.3743 148.749 25.3395V25.3778C148.749 26.0426 148.053 26.0746 146.32 26.2599C144.416 26.4645 142.594 27.0334 142.594 29.245C142.594 31.1754 144.007 32.1982 145.879 32.1982ZM146.48 30.4979C145.515 30.4979 144.825 30.0568 144.825 29.2067C144.825 28.3182 145.598 27.9474 146.634 27.8004C147.241 27.7173 148.455 27.5639 148.756 27.321V28.478C148.756 29.571 147.874 30.4979 146.48 30.4979ZM155.621 28.8679V22.1818H153.39V32H155.774L159.693 25.3075V32H161.93V22.1818H159.552L155.621 28.8679ZM158.919 18.8068C158.913 19.4332 158.555 19.9893 157.654 19.9893C156.74 19.9893 156.394 19.4205 156.394 18.8068H154.675C154.669 20.3026 155.825 21.3125 157.654 21.3125C159.494 21.3125 160.651 20.3026 160.651 18.8068H158.919ZM163.207 24.0803H166.384V32H168.621V24.0803H171.798V22.1818H163.207V24.0803Z" fill="white"/>
</svg>
