<svg width="165" height="50" viewBox="0 0 165 50" fill="none" xmlns="http://www.w3.org/2000/svg">
<rect width="165" height="50" rx="4" fill="#2D9D78"/>
<path d="M127.682 24.7339L122.42 20.0832L123.645 19L131 25.5L123.646 32L122.42 30.9168L127.681 26.2661L118 26.2661L118 24.7339L127.682 24.7339Z" fill="white"/>
<path d="M35.8693 32.179C38.669 32.179 40.7081 30.5746 40.7017 28.3629C40.7081 26.7266 39.6854 25.5504 37.8509 25.2884V25.1861C39.2699 24.8793 40.2223 23.8246 40.2159 22.3544C40.2223 20.3601 38.522 18.7301 35.9077 18.7301C33.3636 18.7301 31.3949 20.245 31.3438 22.4375H33.6257C33.6641 21.3381 34.6868 20.6541 35.8949 20.6541C37.1158 20.6541 37.9276 21.3956 37.9212 22.495C37.9276 23.6392 36.9815 24.3999 35.6264 24.3999H34.4695V26.228H35.6264C37.282 26.228 38.2663 27.0589 38.2599 28.2415C38.2663 29.3984 37.2628 30.1911 35.8629 30.1911C34.5462 30.1911 33.5298 29.5071 33.4723 28.4396H31.0689C31.1328 30.6513 33.108 32.179 35.8693 32.179ZM45.7466 32.1982C47.2871 32.1982 48.2076 31.4759 48.6294 30.6513H48.7061V32H50.9306V25.429C50.9306 22.8338 48.8148 22.054 46.9419 22.054C44.8773 22.054 43.2921 22.9744 42.7807 24.7642L44.9412 25.071C45.1713 24.3999 45.8233 23.8246 46.9547 23.8246C48.0286 23.8246 48.6167 24.3743 48.6167 25.3395V25.3778C48.6167 26.0426 47.9199 26.0746 46.1877 26.2599C44.2828 26.4645 42.4611 27.0334 42.4611 29.245C42.4611 31.1754 43.8738 32.1982 45.7466 32.1982ZM46.3475 30.4979C45.3823 30.4979 44.6919 30.0568 44.6919 29.2067C44.6919 28.3182 45.4654 27.9474 46.5009 27.8004C47.1081 27.7173 48.3226 27.5639 48.623 27.321V28.478C48.623 29.571 47.7409 30.4979 46.3475 30.4979ZM53.2573 32H55.5712V28.299H56.7026L59.3936 32H62.1934L58.5179 27.0014L62.155 22.1818H59.3681L56.415 26.1449H55.5712V22.1818H53.2573V32ZM66.3306 32.1982C67.8711 32.1982 68.7915 31.4759 69.2134 30.6513H69.2901V32H71.5146V25.429C71.5146 22.8338 69.3988 22.054 67.5259 22.054C65.4613 22.054 63.8761 22.9744 63.3647 24.7642L65.5252 25.071C65.7553 24.3999 66.4073 23.8246 67.5387 23.8246C68.6126 23.8246 69.2006 24.3743 69.2006 25.3395V25.3778C69.2006 26.0426 68.5039 26.0746 66.7717 26.2599C64.8668 26.4645 63.0451 27.0334 63.0451 29.245C63.0451 31.1754 64.4577 32.1982 66.3306 32.1982ZM66.9315 30.4979C65.9663 30.4979 65.2759 30.0568 65.2759 29.2067C65.2759 28.3182 66.0494 27.9474 67.0849 27.8004C67.6921 27.7173 68.9066 27.5639 69.207 27.321V28.478C69.207 29.571 68.3249 30.4979 66.9315 30.4979ZM73.2979 29.3089C73.3555 31.1307 75.0238 32.1918 77.293 32.1918C79.6197 32.1918 81.3008 31.0859 81.3008 29.277C81.3008 27.9538 80.3995 27.0462 79.2362 26.9759V26.8736C80.3612 26.5732 81.0771 25.87 81.0771 24.8089C81.0771 23.1534 79.6452 22.054 77.3441 22.054C75.1964 22.054 73.5792 23.1662 73.5472 24.8793H75.8292C75.8548 24.2209 76.5323 23.7607 77.4528 23.7607C78.3732 23.7607 78.9293 24.2528 78.9293 24.9815C78.9293 25.6527 78.418 26.1513 77.4592 26.1513H75.957V27.794H77.4592C78.4244 27.794 79.0572 28.3374 79.0572 29.13C79.0572 30.0249 78.271 30.4595 77.2802 30.4595C76.3022 30.4595 75.6374 30.0376 75.5927 29.3089H73.2979ZM85.9478 32.1982C87.4883 32.1982 88.4087 31.4759 88.8306 30.6513H88.9073V32H91.1317V25.429C91.1317 22.8338 89.016 22.054 87.1431 22.054C85.0785 22.054 83.4933 22.9744 82.9819 24.7642L85.1424 25.071C85.3725 24.3999 86.0245 23.8246 87.1559 23.8246C88.2298 23.8246 88.8178 24.3743 88.8178 25.3395V25.3778C88.8178 26.0426 88.1211 26.0746 86.3888 26.2599C84.484 26.4645 82.6623 27.0334 82.6623 29.245C82.6623 31.1754 84.0749 32.1982 85.9478 32.1982ZM86.5487 30.4979C85.5835 30.4979 84.8931 30.0568 84.8931 29.2067C84.8931 28.3182 85.6665 27.9474 86.7021 27.8004C87.3093 27.7173 88.5238 27.5639 88.8242 27.321V28.478C88.8242 29.571 87.9421 30.4979 86.5487 30.4979ZM92.359 24.0803H95.5359V32H97.7731V24.0803H100.95V22.1818H92.359V24.0803ZM105.023 25.3778V22.1818H102.792V32H107.254C109.753 32 111.192 30.6193 111.198 28.6889C111.192 26.7074 109.753 25.3778 107.254 25.3778H105.023ZM105.023 27.2763H107.254C108.258 27.2763 108.98 27.8707 108.98 28.7209C108.98 29.5327 108.258 30.1016 107.254 30.1016H105.023V27.2763Z" fill="white"/>
</svg>
