<svg width="37" height="38" viewBox="0 0 37 38" fill="none" xmlns="http://www.w3.org/2000/svg">
<path d="M36.2942 18.8903C36.2942 28.7349 28.3264 36.7135 18.5 36.7135C8.67356 36.7135 0.70577 28.7349 0.70577 18.8903C0.70577 9.04578 8.67356 1.0671 18.5 1.0671C28.3264 1.0671 36.2942 9.04578 36.2942 18.8903Z" fill="#F6F6F6" stroke="#E2E8F0" stroke-width="1.41154"/>
<path d="M18.6554 12.7975C18.5356 12.7989 18.4172 12.8242 18.3072 12.8716C18.1971 12.9191 18.0975 12.988 18.0141 13.0742C17.9307 13.1605 17.8651 13.2625 17.8212 13.3742C17.7773 13.486 17.7559 13.6053 17.7582 13.7254V18.105H13.3896C13.3577 18.1034 13.3258 18.1034 13.2939 18.105C13.0535 18.1195 12.8286 18.2286 12.6681 18.4086C12.5076 18.5886 12.4247 18.825 12.4373 19.0661C12.4499 19.3072 12.5571 19.5337 12.7355 19.6959C12.9139 19.8581 13.149 19.9429 13.3896 19.9321H17.7582V24.3117C17.7571 24.4323 17.7799 24.552 17.8253 24.6637C17.8706 24.7755 17.9376 24.8772 18.0223 24.9629C18.107 25.0486 18.2078 25.1165 18.3189 25.163C18.43 25.2094 18.5491 25.2333 18.6695 25.2333C18.7898 25.2333 18.909 25.2094 19.0201 25.163C19.1312 25.1165 19.232 25.0486 19.3167 24.9629C19.4014 24.8772 19.4684 24.7755 19.5137 24.6637C19.559 24.552 19.5818 24.4323 19.5808 24.3117V19.9321H23.9494C24.07 19.9336 24.1897 19.9112 24.3016 19.8659C24.4135 19.8207 24.5152 19.7536 24.6011 19.6686C24.6869 19.5836 24.755 19.4823 24.8015 19.3707C24.848 19.2591 24.872 19.1396 24.872 19.0187C24.872 18.8977 24.848 18.778 24.8015 18.6664C24.755 18.5548 24.6869 18.4535 24.6011 18.3685C24.5152 18.2835 24.4135 18.2166 24.3016 18.1714C24.1897 18.1261 24.07 18.1036 23.9494 18.105H19.5808V13.7254C19.5832 13.6029 19.5609 13.4812 19.5152 13.3675C19.4696 13.2539 19.4015 13.1506 19.3151 13.0639C19.2286 12.9773 19.1257 12.909 19.0123 12.8632C18.8989 12.8175 18.7776 12.7951 18.6554 12.7975Z" fill="#282828"/>
</svg>
