<svg width="14" height="14" viewBox="0 0 14 14" fill="none" xmlns="http://www.w3.org/2000/svg">
<path d="M7.00162 0.000197179C6.86673 0.00175278 6.73348 0.0301898 6.60956 0.083624C6.48563 0.137058 6.37349 0.214591 6.27959 0.311688C6.18568 0.408784 6.11189 0.523583 6.06245 0.649411C6.01301 0.77524 5.98891 0.909588 5.99153 1.0448V5.97523H1.07347C1.0376 5.97333 1.00165 5.97333 0.965783 5.97523C0.695141 5.99152 0.441896 6.11428 0.261249 6.31697C0.080603 6.51966 -0.0127968 6.78574 0.00141327 7.05717C0.0156234 7.32861 0.13629 7.58356 0.337108 7.76618C0.537926 7.9488 0.802613 8.04426 1.07347 8.03206H5.99153V12.9625C5.99035 13.0983 6.01602 13.233 6.06705 13.3588C6.11808 13.4846 6.19347 13.5991 6.28885 13.6956C6.38423 13.7921 6.49772 13.8686 6.62278 13.9208C6.74783 13.9731 6.88197 14 7.01745 14C7.15293 14 7.28707 13.9731 7.41212 13.9208C7.53718 13.8686 7.65067 13.7921 7.74605 13.6956C7.84143 13.5991 7.91682 13.4846 7.96785 13.3588C8.01888 13.233 8.04454 13.0983 8.04337 12.9625V8.03206H12.9614C13.0972 8.03373 13.232 8.00855 13.3579 7.95761C13.4838 7.90668 13.5984 7.83112 13.695 7.73546C13.7916 7.63979 13.8683 7.52571 13.9207 7.4001C13.973 7.27449 14 7.1399 14 7.00376C14 6.86763 13.973 6.7328 13.9207 6.60719C13.8683 6.48158 13.7916 6.3675 13.695 6.27183C13.5984 6.17616 13.4838 6.10085 13.3579 6.04991C13.232 5.99898 13.0972 5.97356 12.9614 5.97523H8.04337V1.0448C8.04606 0.906895 8.02095 0.769791 7.96955 0.641848C7.91814 0.513905 7.8415 0.397638 7.74421 0.300107C7.64692 0.202576 7.53098 0.125702 7.40336 0.0741702C7.27574 0.0226389 7.13918 -0.00250763 7.00162 0.000197179Z" fill="white"/>
</svg>
