<svg width="208" height="50" viewBox="0 0 208 50" fill="none" xmlns="http://www.w3.org/2000/svg">
<rect width="208" height="50" rx="4" fill="#2D9D78"/>
<path d="M30.3934 15.875C28.2116 15.875 26.0281 16.7112 24.3669 18.3724C21.0444 21.695 21.0444 27.0936 24.3669 30.4161C27.5163 33.5654 32.5332 33.7209 35.8776 30.9006L38.8708 33.8914C38.9366 33.9627 39.0159 34.02 39.1041 34.06C39.1932 34.1005 39.2896 34.1226 39.3876 34.1248C39.4855 34.127 39.5829 34.1094 39.6737 34.073C39.7646 34.0367 39.8472 33.9823 39.9166 33.9132C39.9859 33.844 40.0406 33.7616 40.0772 33.6708C40.1138 33.58 40.1317 33.4827 40.1297 33.3848C40.1278 33.2869 40.106 33.1904 40.0658 33.1011C40.0259 33.0127 39.9688 32.9331 39.8976 32.8671L36.9044 29.8739C39.7247 26.5302 39.5692 21.5218 36.4199 18.3726C34.7587 16.7114 32.5752 15.875 30.3934 15.875H30.3934ZM30.3934 17.3192C32.2023 17.3192 34.0098 18.0066 35.3931 19.3899C38.1599 22.1567 38.1599 26.6226 35.3931 29.3893C32.6264 32.1561 28.1605 32.1561 25.3937 29.3893C22.6269 26.6226 22.6269 22.1567 25.3937 19.3899C26.7771 18.0066 28.5846 17.3192 30.3934 17.3192Z" fill="white" stroke="white" stroke-width="0.25"/>
<path d="M61.5905 18.9091H51.1586V32H53.5109V20.8778H59.2382V32H61.5905V18.9091ZM64.3247 35.6818H66.6386V30.4531H66.7345C67.0988 31.169 67.8595 32.1726 69.547 32.1726C71.8609 32.1726 73.5931 30.3381 73.5931 27.1037C73.5931 23.831 71.8097 22.054 69.5406 22.054C67.8083 22.054 67.086 23.0959 66.7345 23.8054H66.6002V22.1818H64.3247V35.6818ZM66.5938 27.0909C66.5938 25.1861 67.412 23.9524 68.9014 23.9524C70.4419 23.9524 71.2345 25.2628 71.2345 27.0909C71.2345 28.9318 70.4291 30.2741 68.9014 30.2741C67.4248 30.2741 66.5938 28.9957 66.5938 27.0909ZM79.9213 32.1918C82.2096 32.1918 83.782 31.0732 84.1911 29.3665L82.0306 29.1236C81.7174 29.9545 80.9504 30.3892 79.9532 30.3892C78.4575 30.3892 77.4667 29.4048 77.4475 27.7237H84.287V27.0142C84.287 23.5689 82.216 22.054 79.7998 22.054C76.9873 22.054 75.1528 24.1186 75.1528 27.1484C75.1528 30.2294 76.9617 32.1918 79.9213 32.1918ZM77.4539 26.1641C77.5242 24.9112 78.4511 23.8565 79.8318 23.8565C81.1613 23.8565 82.0562 24.8281 82.069 26.1641H77.4539ZM85.3753 34.8509H87.6508V32H94.0748V34.8509H96.3121V30.0952H94.7907V22.1818H87.6956L87.4143 25.6207C87.229 27.8196 86.9861 29.4496 86.1551 30.0952H85.3753V34.8509ZM88.5329 30.0952C89.153 29.1811 89.3831 27.6982 89.5493 25.6207L89.7027 24.0483H92.5791V30.0952H88.5329ZM98.0395 32H100.251V24.0803H104.099V32H106.33V22.1818H98.0395V32ZM108.709 35.6818H111.023V30.4531H111.119C111.484 31.169 112.244 32.1726 113.932 32.1726C116.246 32.1726 117.978 30.3381 117.978 27.1037C117.978 23.831 116.195 22.054 113.925 22.054C112.193 22.054 111.471 23.0959 111.119 23.8054H110.985V22.1818H108.709V35.6818ZM110.979 27.0909C110.979 25.1861 111.797 23.9524 113.286 23.9524C114.827 23.9524 115.619 25.2628 115.619 27.0909C115.619 28.9318 114.814 30.2741 113.286 30.2741C111.81 30.2741 110.979 28.9957 110.979 27.0909ZM124.242 32.1918C127.119 32.1918 128.947 30.1655 128.947 27.1293C128.947 24.0866 127.119 22.054 124.242 22.054C121.366 22.054 119.538 24.0866 119.538 27.1293C119.538 30.1655 121.366 32.1918 124.242 32.1918ZM124.255 30.3381C122.663 30.3381 121.883 28.919 121.883 27.1229C121.883 25.3267 122.663 23.8885 124.255 23.8885C125.821 23.8885 126.601 25.3267 126.601 27.1229C126.601 28.919 125.821 30.3381 124.255 30.3381ZM135.193 32.1918C137.661 32.1918 139.233 30.728 139.399 28.6442H137.188C136.989 29.6989 136.229 30.3061 135.212 30.3061C133.768 30.3061 132.835 29.098 132.835 27.0909C132.835 25.1094 133.787 23.9205 135.212 23.9205C136.325 23.9205 137.009 24.6364 137.188 25.5824H139.399C139.239 23.4538 137.578 22.054 135.18 22.054C132.304 22.054 130.489 24.1314 130.489 27.1293C130.489 30.1016 132.259 32.1918 135.193 32.1918ZM146.95 29.3089L144.112 22.1818H141.299V32H143.53V25.3842L146.144 32H147.762L150.465 25.3139V32H152.677V22.1818H149.865L146.95 29.3089ZM159.293 32.1918C162.169 32.1918 163.997 30.1655 163.997 27.1293C163.997 24.0866 162.169 22.054 159.293 22.054C156.416 22.054 154.588 24.0866 154.588 27.1293C154.588 30.1655 156.416 32.1918 159.293 32.1918ZM159.306 30.3381C157.714 30.3381 156.934 28.919 156.934 27.1229C156.934 25.3267 157.714 23.8885 159.306 23.8885C160.872 23.8885 161.652 25.3267 161.652 27.1229C161.652 28.919 160.872 30.3381 159.306 30.3381ZM164.897 24.0803H168.074V32H170.311V24.0803H173.488V22.1818H164.897V24.0803ZM175.331 35.6818H177.644V30.4531H177.74C178.105 31.169 178.865 32.1726 180.553 32.1726C182.867 32.1726 184.599 30.3381 184.599 27.1037C184.599 23.831 182.816 22.054 180.546 22.054C178.814 22.054 178.092 23.0959 177.74 23.8054H177.606V22.1818H175.331V35.6818ZM177.6 27.0909C177.6 25.1861 178.418 23.9524 179.907 23.9524C181.448 23.9524 182.24 25.2628 182.24 27.0909C182.24 28.9318 181.435 30.2741 179.907 30.2741C178.431 30.2741 177.6 28.9957 177.6 27.0909Z" fill="white"/>
</svg>
