<svg width="47" height="47" viewBox="0 0 47 47" fill="none" xmlns="http://www.w3.org/2000/svg">
<path d="M30.2229 2.10947C42.3151 2.10947 45.1938 4.98824 45.1938 17.0804V30.3223C45.1938 42.4145 42.3151 45.2956 30.2229 45.2956H16.9787C4.88649 45.2956 2.00772 42.4168 2.00772 30.3246V17.0781C2.00772 4.98595 4.88649 2.10718 16.9787 2.10718H30.2229V2.10947ZM13.2548 15.6033L24.7952 35.4627C23.8951 35.4627 9.02715 16.027 9.02715 16.4964C9.02715 17.3278 10.0944 21.4662 13.9969 26.9374C16.5985 30.6727 20.2651 32.6995 23.6019 32.6995C25.6035 32.6995 25.8509 32.2484 25.8509 31.4743V28.6482C25.8509 27.7481 26.041 27.5695 26.6754 27.5695C27.1426 27.5695 27.9418 27.8031 29.8106 29.6032C31.9451 31.7377 32.2978 32.695 33.4978 32.695H36.6468C37.5469 32.695 38.6543 37.0647 38.3932 36.1784C38.1092 35.2921 34.8513 38.417 33.4978 36.8941C32.765 36.0284 9.36152 30.7918 9.02715 30.3246C8.55995 29.7246 28.3736 7.55099 32.9138 23.9991L32.6677 24.0117C33.1418 23.3384 24.4219 22.8529 24.7952 21.149C24.9944 20.4803 36.9618 11.8449 37.6775 11.8449L40.5402 22.9296C39.7387 22.9296 33.1703 19.2481 32.9688 19.7176C32.9688 19.7176 30.0763 20.3966 27.809 22.9296C27.0761 23.6647 26.7418 23.8983 26.341 23.8983C13.3442 39.0411 6.18738 14.6586 6.18738 13.9922L25.8509 16.7621C25.8509 15.9605 25.6196 15.6033 24.9508 15.6033L17.6383 18.2863C17.1368 18.2863 19.2048 15.9766 19.2048 16.327C19.2048 17.0873 31.5626 11.142 31.6794 13.2765L20.4552 24.0335C20.4552 25.0503 20.272 25.2358 19.8712 25.2358C18.804 25.2358 16.2069 21.315 14.6656 16.8285C14.3656 15.9582 14.061 15.6033 13.2571 15.6033H13.2548Z" fill="#191919"/>
<path d="M35.9895 12.8241L10.8548 22.5186C9.13935 23.2069 9.14952 24.1637 10.5421 24.5904L16.8108 26.547L19.2094 33.9007C19.501 34.7056 19.3572 35.0248 20.2024 35.0248C20.8547 35.0248 21.144 34.7274 21.5073 34.3725C21.7383 34.1465 23.1099 32.8129 24.6414 31.3239L31.162 36.1416C32.3619 36.8036 33.2283 36.4606 33.5271 35.0272L37.8073 14.8569C38.2456 13.1 37.1375 12.3031 35.9895 12.8241ZM17.7946 26.0974L31.9242 17.183C32.6296 16.7552 33.2764 16.9852 32.7453 17.4565L20.6467 28.3726L20.1756 33.397L17.7946 26.0974V26.0974Z" fill="white"/>
</svg>
