<svg width="47" height="47" viewBox="0 0 47 47" fill="none" xmlns="http://www.w3.org/2000/svg">
<path d="M30.2912 2.46713C42.3834 2.46713 45.2622 5.3459 45.2622 17.4381V30.68C45.2622 42.7722 42.3834 45.6532 30.2912 45.6532H17.047C4.95482 45.6532 2.07605 42.7745 2.07605 30.6823V17.4358C2.07605 5.34361 4.95482 2.46484 17.047 2.46484H30.2912V2.46713ZM13.3232 15.9609H10.1742C9.27412 15.9609 9.09548 16.3846 9.09548 16.8541C9.09548 17.6854 10.1627 21.8238 14.0652 27.2951C16.6669 31.0304 20.3334 33.0572 23.6703 33.0572C25.6719 33.0572 25.9192 32.606 25.9192 31.8319V29.0059C25.9192 28.1058 26.1093 27.9272 26.7437 27.9272C27.2109 27.9272 28.0102 28.1608 29.879 29.9609C32.0134 32.0953 32.3661 33.0526 33.5662 33.0526H36.7152C37.6152 33.0526 38.0664 32.6037 37.8053 31.7174C37.5213 30.8311 36.5022 29.5486 35.1487 28.0257C34.4158 27.16 33.3165 26.2256 32.9822 25.7584C32.515 25.1583 32.6478 24.8881 32.9822 24.3568L33.0371 24.2766C33.5112 23.6033 36.8457 18.8214 37.219 17.1175C37.4183 16.4487 37.219 15.9586 36.2663 15.9586H33.1173C32.3157 15.9586 31.9493 16.3823 31.7478 16.8518C31.7478 16.8518 30.1446 20.7543 27.8773 23.2872C27.1445 24.0224 26.8101 24.256 26.4093 24.256C26.2101 24.256 25.9192 24.0224 25.9192 23.356V17.1198C25.9192 16.3182 25.6879 15.9609 25.0192 15.9609H20.0747C19.5731 15.9609 19.2731 16.3342 19.2731 16.6846C19.2731 17.445 20.4067 17.619 20.5235 19.7535V24.3911C20.5235 25.408 20.3403 25.5935 19.9395 25.5935C18.8723 25.5935 16.2752 21.6727 14.7339 17.1862C14.4339 16.3159 14.1293 15.9609 13.3255 15.9609H13.3232Z" fill="#191919"/>
</svg>
