<svg width="47" height="47" viewBox="0 0 47 47" fill="none" xmlns="http://www.w3.org/2000/svg">
<path d="M30.1322 2.10947C42.225 2.10947 45.1039 4.98824 45.1039 17.0804V30.3223C45.1039 42.4145 42.225 45.2956 30.1322 45.2956H16.8873C4.79445 45.2956 1.91553 42.4168 1.91553 30.3246V17.0781C1.91553 4.98595 4.79445 2.10718 16.8873 2.10718H30.1322V2.10947ZM13.1632 15.6033L24.7042 35.4627C23.8041 35.4627 8.93533 16.027 8.93533 16.4964C8.93533 17.3278 10.0026 21.4662 13.9053 26.9374C16.5071 30.6727 20.1739 32.6995 23.5109 32.6995C25.5126 32.6995 25.76 32.2484 25.76 31.4743V28.6482C25.76 27.7481 25.9501 27.5695 26.5845 27.5695C27.0517 27.5695 27.851 27.8031 29.7199 29.6032C31.8545 31.7377 32.2072 32.695 33.4073 32.695H36.5565C37.4566 32.695 38.564 37.0647 38.3029 36.1784C38.0189 35.2921 34.7609 38.417 33.4073 36.8941C32.6744 36.0284 9.26972 30.7918 8.93533 30.3246C8.46811 29.7246 28.2828 7.55099 32.8233 23.9991L32.5771 24.0117C33.0512 23.3384 24.3309 22.8529 24.7042 21.149C24.9034 20.4803 36.8715 11.8449 37.5872 11.8449L40.4501 22.9296C39.6485 22.9296 33.0798 19.2481 32.8782 19.7176C32.8782 19.7176 29.9856 20.3966 27.7182 22.9296C26.9853 23.6647 26.6509 23.8983 26.2501 23.8983C13.2526 39.0411 6.09541 14.6586 6.09541 13.9922L25.76 16.7621C25.76 15.9605 25.5286 15.6033 24.8599 15.6033L17.547 18.2863C17.0454 18.2863 19.1135 15.9766 19.1135 16.327C19.1135 17.0873 31.472 11.142 31.5888 13.2765L20.364 24.0335C20.364 25.0503 20.1808 25.2358 19.78 25.2358C18.7127 25.2358 16.1155 21.315 14.5741 16.8285C14.274 15.9582 13.9694 15.6033 13.1655 15.6033H13.1632Z" fill="#191919"/>
<path fill-rule="evenodd" clip-rule="evenodd" d="M25.044 9.80347C28.2528 9.9605 31.2427 11.278 33.5264 13.5535C35.9624 15.9805 37.3032 19.2066 37.3019 22.6375C37.299 29.7174 31.5105 35.478 24.3997 35.478C21.7256 35.478 19.6007 34.6599 18.2286 33.9151L11.3889 35.7006L13.2193 29.0467C12.0902 27.0994 11.4961 24.8905 11.497 22.6273C11.4999 15.5476 17.2879 9.7876 24.3995 9.7876L25.044 9.80347ZM18.5455 31.5905L18.9371 31.8217C20.5836 32.7942 22.4709 33.3087 24.3953 33.3094H24.3996C30.3103 33.3094 35.121 28.5216 35.1234 22.6368C35.1245 19.7851 34.0101 17.1036 31.9855 15.0863C29.9607 13.0689 27.2682 11.9573 24.4039 11.9563C18.4886 11.9563 13.6778 16.7437 13.6755 22.628C13.6747 24.6447 14.2416 26.6087 15.3151 28.3078L15.5701 28.7117L14.4867 32.65L18.5455 31.5905ZM30.8997 25.6909C30.8191 25.557 30.6042 25.4768 30.2819 25.3162C29.9595 25.1556 28.3745 24.3794 28.079 24.2722C27.7835 24.1653 27.5685 24.1118 27.3536 24.4329C27.1388 24.7541 26.5209 25.4768 26.3328 25.6909C26.1448 25.905 25.9567 25.9319 25.6344 25.7713C25.312 25.6107 24.2732 25.2718 23.0418 24.1788C22.0834 23.328 21.4364 22.2774 21.2484 21.9562C21.0604 21.635 21.2283 21.4613 21.3897 21.3014C21.5347 21.1576 21.7121 20.9266 21.8733 20.7393C22.0345 20.552 22.0882 20.418 22.1957 20.204C22.3032 19.9898 22.2494 19.8025 22.1688 19.6419C22.0882 19.4813 21.4435 17.902 21.1749 17.2596C20.9131 16.634 20.6473 16.7187 20.4495 16.7088C20.2617 16.6996 20.0465 16.6975 19.8316 16.6975C19.6167 16.6975 19.2674 16.7778 18.9719 17.099C18.6764 17.4202 17.8436 18.1965 17.8436 19.7756C17.8436 21.3549 18.9988 22.8805 19.16 23.0946C19.3212 23.3088 21.4333 26.5494 24.6672 27.9393C25.4364 28.2699 26.0369 28.4672 26.5051 28.6151C27.2774 28.8593 27.9802 28.8249 28.5357 28.7422C29.1551 28.6501 30.443 27.9661 30.7117 27.2167C30.9803 26.4671 30.9803 25.8247 30.8997 25.6909Z" fill="white"/>
</svg>
