<svg width="46" height="46" viewBox="0 0 46 46" fill="none" xmlns="http://www.w3.org/2000/svg">
<g clip-path="url(#clip0)">
<path d="M46 14.0985C45.9965 14.986 45.7196 15.869 45.1777 16.5976L45.1644 16.6158L26.12 41.3576C25.7427 41.8619 25.27 42.2589 24.7379 42.5301C24.5224 42.64 24.2957 42.7288 24.063 42.7962C23.7216 42.8941 23.365 42.9453 23 42.9453C22.6378 42.9453 22.2841 42.8951 21.945 42.7979C21.1347 42.567 20.4121 42.0693 19.88 41.3576L0.822268 16.5976C0.280397 15.869 0.00454896 14.986 -1.34138e-05 14.0985C-0.0052777 13.3562 0.180727 12.6115 0.561861 11.9527L4.17316 4.95475L4.19316 4.92071C4.91823 3.69624 6.1764 2.96485 7.55845 2.96485H38.4419C39.8239 2.96485 41.0818 3.69624 41.8072 4.92071L41.8447 4.98915L45.4374 11.9527C45.8186 12.6115 46.0046 13.3562 46 14.0985Z" fill="#1B7AFE"/>
<path d="M46 14.0985C45.9965 14.986 45.7196 15.869 45.1777 16.5976L45.1644 16.6158L26.1199 41.3576C25.7427 41.8619 25.2699 42.2589 24.7379 42.5301C24.5224 42.64 24.2957 42.7288 24.063 42.7962C23.7215 42.8941 23.365 42.9453 23 42.9453V2.96485H38.4419C39.8239 2.96485 41.0821 3.69624 41.8071 4.92071L41.8447 4.98915L45.4374 11.9527C45.8185 12.6115 46.0045 13.3562 46 14.0985Z" fill="url(#paint0_linear)"/>
<path d="M46 14.0985H-1.34138e-05C-0.0052777 13.3562 0.180727 12.6115 0.561861 11.9527L4.17316 4.95475L4.19316 4.92071C4.91823 3.69624 6.1764 2.96485 7.55845 2.96485H38.4419C39.8239 2.96485 41.0818 3.69624 41.8072 4.92071L41.8447 4.98915L45.4374 11.9527C45.8186 12.6115 46.0046 13.3562 46 14.0985Z" fill="#4E98FF"/>
<path d="M46 14.0985H23V2.96485H38.4419C39.8239 2.96485 41.0817 3.69624 41.8071 4.92071L41.8447 4.98915L45.4374 11.9527C45.8185 12.6115 46.0045 13.3562 46 14.0985Z" fill="#3482EE"/>
<path d="M33.2443 14.0985L24.063 42.7962C23.7216 42.8941 23.365 42.9453 23 42.9453C22.6378 42.9453 22.2837 42.8951 21.945 42.7979L12.8459 14.0985L23 2.96485L33.2443 14.0985Z" fill="url(#paint1_linear)"/>
<path d="M33.2443 14.0985L24.063 42.7962C23.7215 42.8941 23.365 42.9453 23 42.9453V2.96485L33.2443 14.0985Z" fill="#32A0FF"/>
<path d="M33.2443 14.0985H12.8459L23 2.96485L33.2443 14.0985Z" fill="#1074FF"/>
<path d="M33.2443 14.0985H23V2.96485L33.2443 14.0985Z" fill="url(#paint2_linear)"/>
</g>
<defs>
<linearGradient id="paint0_linear" x1="34.5" y1="2.96485" x2="34.5" y2="42.9453" gradientUnits="userSpaceOnUse">
<stop stop-color="#45BCFF"/>
<stop offset="1" stop-color="#1B7AFE"/>
</linearGradient>
<linearGradient id="paint1_linear" x1="23.0451" y1="2.96485" x2="23.0451" y2="42.9453" gradientUnits="userSpaceOnUse">
<stop stop-color="#1BACFE"/>
<stop offset="1" stop-color="#1B7AFE"/>
</linearGradient>
<linearGradient id="paint2_linear" x1="28.1221" y1="2.96485" x2="28.1221" y2="14.0985" gradientUnits="userSpaceOnUse">
<stop offset="0.0104167" stop-color="#35B6FF"/>
<stop offset="1" stop-color="#1B7AFE"/>
</linearGradient>
<clipPath id="clip0">
<rect width="46" height="46" fill="white"/>
</clipPath>
</defs>
</svg>
